<svg width="607" height="496" viewBox="0 0 607 496" fill="none" xmlns="http://www.w3.org/2000/svg">
<path d="M183.858 89.8946L102.043 89.1182L200.778 20.4661L183.858 89.8946Z" fill="#EDE2FF"/>
<path d="M412.364 90.1521L394.779 20.9663L493.779 90.152L412.364 90.1521Z" fill="#853AE5"/>
<path d="M425.279 175.466L502.779 96.9664L563.279 175.466L425.279 175.466Z" fill="#895BEB"/>
<path d="M91.2783 97.4662L169.778 175.466L30.2783 175.466L91.2783 97.4662Z" fill="#C99EFF"/>
<path d="M174.278 189.466L174.278 311.966L96.2781 306.121L174.278 189.466Z" fill="#A14CE4"/>
<path d="M420.779 189.966L420.779 311.966L497.779 304.966L420.779 189.966Z" fill="#8F44EE"/>
<path d="M419.779 318.466L404.279 420.466L495.778 311.966L419.779 318.466Z" fill="#6F17B5"/>
<path d="M175.054 318.466L190.554 420.466L99.0547 311.966L175.054 318.466Z" fill="#9C37CC"/>
<path d="M180.778 187.966L181.089 313.466L290.778 319.966L180.778 187.966Z" fill="#A85BF6"/>
<path d="M180.778 318.966L198.278 425.466L291.278 325.966L180.778 318.966Z" fill="#993BE3"/>
<path d="M413.278 319.466L396.278 424.966L304.278 326.466L413.278 319.466Z" fill="#8F3BE3"/>
<path d="M392.779 430.466L300.778 495.966L300.779 331.966L392.779 430.466Z" fill="#6F1FAE"/>
<path d="M201.278 431.466L294.03 495.966L294.03 331.966L201.278 431.466Z" fill="#8823B8"/>
<path d="M413.778 187.966L415.468 312.746L305.778 319.246L413.778 187.966Z" fill="#AA3C3C"/>
<path d="M413.778 187.966L415.468 312.746L305.778 319.246L413.778 187.966Z" fill="#9F5BF6"/>
<path d="M423.279 181.966L564.778 181.966L503.279 301.466L423.279 181.966Z" fill="#7E36DA"/>
<path d="M30.2784 181.966L171.278 181.966L91.7783 301.966L30.2784 181.966Z" fill="#AA3FDC"/>
<path d="M301.029 175.966L301.029 98.9325L406.779 175.966L301.029 175.966Z" fill="#F0DDFF"/>
<path d="M187.778 94.9663L287.278 94.9661L181.778 172.466L187.778 94.9663Z" fill="#BE9FFF"/>
<path d="M407.778 94.7444L306.779 94.7444L413.778 172.244L407.778 94.7444Z" fill="#D3B0FF"/>
<path d="M412.324 95.3648L420.278 172.466L495.778 95.3647L412.324 95.3648Z" fill="#A780FB"/>
<path d="M182.279 95.4384L98.109 95.4383L175.279 172.966L182.279 95.4384Z" fill="#E0B8FF"/>
<path d="M189.278 90.4663L290.279 88.9662L206.778 18.9664L189.278 90.4663Z" fill="#BCB1FF"/>
<path d="M405.778 89.9661L305.778 89.9661L386.872 16.9662L405.778 89.9661Z" fill="#AA3C3C"/>
<path d="M405.778 89.9661L305.778 89.9661L386.872 16.9662L405.778 89.9661Z" fill="#CD9AFF"/>
<path d="M293.527 175.152L293.527 98.1183L187.778 175.152L293.527 175.152Z" fill="#D0B9FF"/>
<path d="M294.778 181.466L184.278 181.466L294.778 314.966L294.778 181.466Z" fill="#B489F9"/>
<path d="M299.868 181.187L410.368 181.187L299.869 314.687L299.868 181.187Z" fill="#AD89F9"/>
</svg>
